<svg width="32" height="32" viewBox="0 0 32 32" fill="none" xmlns="http://www.w3.org/2000/svg">
<rect width="32" height="32" rx="16" fill="white"/>
<path d="M7.5 24.4211V20.6343H7.91059L9.632 23.8189L11.3443 20.6343H11.761V24.4185H11.3352V21.4969L9.77495 24.4211H9.48602L7.92883 21.4969V24.4211H7.5Z" fill="#316DC2"/>
<path d="M18.6015 24.5C18.2953 24.5 18.0196 24.4562 17.7742 24.3685C17.5309 24.2791 17.3292 24.1529 17.169 23.9898C17.0109 23.8268 16.9074 23.6331 16.8588 23.4087L17.315 23.3429C17.388 23.5884 17.5421 23.7812 17.7773 23.9215C18.0125 24.06 18.2933 24.1292 18.6197 24.1292C18.8347 24.1292 19.0273 24.1003 19.1976 24.0424C19.3679 23.9828 19.5017 23.8987 19.5991 23.79C19.6964 23.6813 19.745 23.5524 19.745 23.4034C19.745 23.3052 19.7248 23.222 19.6842 23.1536C19.6437 23.0835 19.5899 23.0256 19.523 22.98C19.4561 22.9344 19.3831 22.8967 19.304 22.8669C19.225 22.8354 19.1479 22.81 19.0729 22.7907L17.9628 22.504C17.829 22.4707 17.7053 22.4287 17.5918 22.3778C17.4782 22.3252 17.3789 22.263 17.2937 22.1911C17.2106 22.1175 17.1457 22.0316 17.0991 21.9334C17.0524 21.8352 17.0291 21.723 17.0291 21.5968C17.0291 21.3829 17.094 21.1979 17.2237 21.0419C17.3535 20.8859 17.5309 20.7658 17.756 20.6816C17.9811 20.5975 18.2375 20.5563 18.5255 20.558C18.8174 20.558 19.078 20.6027 19.3071 20.6922C19.5382 20.7816 19.7288 20.9095 19.8789 21.0761C20.0289 21.2409 20.1283 21.4364 20.1769 21.6625L19.7086 21.7362C19.6781 21.5714 19.6082 21.4285 19.4987 21.3075C19.3892 21.1865 19.2493 21.0936 19.079 21.0288C18.9107 20.9621 18.7252 20.928 18.5224 20.9262C18.3257 20.9262 18.1504 20.9551 17.9963 21.013C17.8442 21.0691 17.7235 21.1462 17.6343 21.2444C17.5451 21.3426 17.5005 21.4548 17.5005 21.581C17.5005 21.709 17.5411 21.8115 17.6222 21.8887C17.7053 21.9658 17.8067 22.0263 17.9263 22.0701C18.048 22.114 18.1656 22.1499 18.2791 22.178L19.1368 22.3962C19.226 22.4173 19.3304 22.4479 19.45 22.4883C19.5717 22.5268 19.6893 22.5829 19.8028 22.6566C19.9184 22.7284 20.0137 22.8231 20.0887 22.9406C20.1637 23.058 20.2013 23.207 20.2013 23.3876C20.2013 23.5629 20.1607 23.7198 20.0796 23.8583C20.0005 23.9968 19.888 24.1134 19.742 24.2081C19.598 24.3028 19.4287 24.3747 19.2341 24.4237C19.0415 24.4746 18.8306 24.5 18.6015 24.5Z" fill="#316DC2"/>
<path fill-rule="evenodd" clip-rule="evenodd" d="M14.1838 20.6343L12.6753 24.4211H13.1407L13.5065 23.5033H15.452L15.8201 24.4211H16.2854L14.7769 20.6343H14.1838ZM15.3064 23.1404L14.4761 21.0705L13.6511 23.1404H13.3475V23.5033H13.5065L13.6511 23.1404H15.3064Z" fill="#316DC2"/>
<path d="M13.3475 23.1404V23.5033H13.5065L13.6511 23.1404H13.3475Z" fill="#316DC2"/>
<path fill-rule="evenodd" clip-rule="evenodd" d="M22.3984 20.6343L20.8899 24.4211H21.3552L21.721 23.5033H23.6665L24.0347 24.4211H24.5L22.9915 20.6343H22.3984ZM23.521 23.1404L22.6907 21.0705L21.8657 23.1404H21.562V23.5033H21.721L21.8657 23.1404H23.521Z" fill="#316DC2"/>
<path d="M21.562 23.1404V23.5033H21.721L21.8657 23.1404H21.562Z" fill="#316DC2"/>
<path d="M11.029 10.8247C10.7123 11.0539 10.5267 11.5393 10.8766 12.1196C11.2265 12.6999 16.2259 16.6172 16.4091 16.7259C16.5925 16.8348 16.7759 16.8529 17.2423 16.4721C17.709 16.0912 21.6077 13.1159 21.7083 13.0264C21.8684 12.884 21.9083 12.5367 21.7083 12.3734C21.7083 12.3734 16.9851 15.9642 16.8304 16.1094C16.6758 16.2545 16.4353 16.0187 16.4804 15.7104C16.5258 15.4021 16.5592 15.3658 17.1591 14.8943C17.759 14.4227 21.1603 11.804 21.3146 11.6882C21.4894 11.557 21.4936 11.3253 21.2074 11.1204C20.8094 10.8355 16.5087 7.72845 16.3649 7.61969C16.2206 7.51083 16.021 7.41193 15.7211 7.62955C15.4211 7.84718 11.6109 10.4035 11.029 10.8247Z" fill="#316DC2"/>
<path d="M16.4091 17.1082C16.2888 17.0367 14.0953 15.3258 12.5021 13.9937V16.7712C12.5008 18.7987 18.1238 19.882 19.9867 17.3895V14.7349C18.8423 15.6133 17.5037 16.6409 17.2423 16.8542C16.7759 17.235 16.5925 17.2169 16.4091 17.1082Z" fill="#316DC2"/>
<path d="M18.7886 14.0627C18.7886 14.0627 19.6246 14.4897 19.6841 16.208L19.2791 16.0946L18.955 16.7939C18.8179 14.9123 18.0714 14.6394 18.0714 14.6394L18.7886 14.0627Z" fill="#98B8E6"/>
</svg>
